<mxfile host="app.diagrams.net" modified="2023-01-05T16:01:51.316Z" agent="5.0 (X11; Linux x86_64) AppleWebKit/537.36 (KHTML, like Gecko) Chrome/108.0.0.0 Safari/537.36" etag="HNDr2DVb26EMReu93HvA" version="20.8.1" type="github">
  <diagram name="Page-1" id="10a91c8b-09ff-31b1-d368-03940ed4cc9e">
    <mxGraphModel dx="1434" dy="807" grid="1" gridSize="10" guides="1" tooltips="1" connect="1" arrows="1" fold="1" page="1" pageScale="1" pageWidth="1100" pageHeight="850" background="none" math="0" shadow="0">
      <root>
        <mxCell id="0" />
        <mxCell id="1" parent="0" />
        <mxCell id="z5JuQgK3aW6ktvoho7Cb-2" value="Loading Screen" style="rounded=1;whiteSpace=wrap;html=1;" vertex="1" parent="1">
          <mxGeometry x="520" y="80" width="120" height="60" as="geometry" />
        </mxCell>
        <mxCell id="z5JuQgK3aW6ktvoho7Cb-3" value="" style="endArrow=none;html=1;rounded=0;" edge="1" parent="1">
          <mxGeometry width="50" height="50" relative="1" as="geometry">
            <mxPoint x="520" y="320" as="sourcePoint" />
            <mxPoint x="570" y="270" as="targetPoint" />
          </mxGeometry>
        </mxCell>
      </root>
    </mxGraphModel>
  </diagram>
</mxfile>
